<?xml version="1.0" encoding="UTF-8"?>
<svg xmlns="http://www.w3.org/2000/svg"
     xmlns:xlink="http://www.w3.org/1999/xlink"
     version="1.2"
     width="160mm" height="160mm" viewBox="0 0 160 160"
     stroke="none"
     fill="#000000"
     stroke-width="0.3"
     font-size="3.88"
>
<defs>
  <marker id="arrow" markerWidth="15" markerHeight="7" refX="5" refY="3.5" orient="auto" markerUnits="strokeWidth">
    <path d="M0,0 L15,3.5 L0,7 z" stroke="context-stroke" fill="context-stroke"/>
  </marker>
</defs>
<g stroke-width="0.95" fill="#000000" fill-opacity="0.000" stroke="#D3D3D3" id="img-4de128b3-1">
  <g transform="translate(106.62,82.5)">
    <path fill="none" d="M-5.64,-6.01 L5.64,6.01 " class="primitive"/>
  </g>
  <g transform="translate(69.78,57.27)">
    <path fill="none" d="M22.99,12.81 L-22.99,-12.81 " class="primitive"/>
  </g>
  <g transform="translate(122.02,47.58)">
    <path fill="none" d="M-20.95,21.31 L20.95,-21.31 " class="primitive"/>
  </g>
  <g transform="translate(86.96,85.31)">
    <path fill="none" d="M7.06,-8.59 L-7.06,8.59 " class="primitive"/>
  </g>
  <g transform="translate(71.4,85.02)">
    <path fill="none" d="M21.21,-10.11 L-21.21,10.11 " class="primitive"/>
  </g>
  <g transform="translate(116.7,106.59)">
    <path fill="none" d="M-16.72,-29.36 L16.72,29.36 " class="primitive"/>
  </g>
  <g transform="translate(80.81,109.66)">
    <path fill="none" d="M14.41,-32.2 L-14.41,32.2 " class="primitive"/>
  </g>
  <g transform="translate(27.76,77.92)">
    <path fill="none" d="M-12.47,31.12 L12.47,-31.12 " class="primitive"/>
  </g>
  <g transform="translate(44.94,105.95)">
    <path fill="none" d="M-26.5,6.69 L26.5,-6.69 " class="primitive"/>
  </g>
  <g transform="translate(29.38,105.66)">
    <path fill="none" d="M-11.36,5.86 L11.36,-5.86 " class="primitive"/>
  </g>
  <g transform="translate(38.79,130.3)">
    <path fill="none" d="M-21.02,-13.52 L21.02,13.52 " class="primitive"/>
  </g>
  <g transform="translate(131.27,57.43)">
    <path fill="none" d="M-13.27,30.09 L13.27,-30.09 " class="primitive"/>
  </g>
  <g transform="translate(96.21,95.16)">
    <path fill="none" d="M14.44,-2.07 L-14.44,2.07 " class="primitive"/>
  </g>
  <g transform="translate(80.65,94.87)">
    <path fill="none" d="M29.97,-2.15 L-29.97,2.15 " class="primitive"/>
  </g>
  <g transform="translate(106.51,52.84)">
    <path fill="none" d="M8.15,34.38 L-8.15,-34.38 " class="primitive"/>
  </g>
  <g transform="translate(125.95,116.44)">
    <path fill="none" d="M-8.04,-19.23 L8.04,19.23 " class="primitive"/>
  </g>
  <g transform="translate(90.06,119.51)">
    <path fill="none" d="M22.18,-23.34 L-22.18,23.34 " class="primitive"/>
  </g>
  <g transform="translate(59.37,69.94)">
    <path fill="none" d="M-14.43,-23.54 L14.43,23.54 " class="primitive"/>
  </g>
  <g transform="translate(43.81,69.65)">
    <path fill="none" d="M-1.31,-22.48 L1.31,22.48 " class="primitive"/>
  </g>
  <g transform="translate(69.67,27.62)">
    <path fill="none" d="M-22.8,11.85 L22.8,-11.85 " class="primitive"/>
  </g>
  <g transform="translate(121.91,17.93)">
    <path fill="none" d="M19.58,3.63 L-19.58,-3.63 " class="primitive"/>
  </g>
  <g transform="translate(86.85,55.66)">
    <path fill="none" d="M-9.05,37.2 L9.05,-37.2 " class="primitive"/>
  </g>
  <g transform="translate(106.29,119.25)">
    <path fill="none" d="M-25.45,-18.21 L25.45,18.21 " class="primitive"/>
  </g>
  <g transform="translate(70.4,122.32)">
    <path fill="none" d="M4.86,-19.23 L-4.86,19.23 " class="primitive"/>
  </g>
  <g transform="translate(54.84,122.03)">
    <path fill="none" d="M-7.53,-19.71 L7.53,19.71 " class="primitive"/>
  </g>
</g>
<g stroke-width="0.95" stroke="#D3D3D3" id="img-4de128b3-2">
  <g transform="translate(109.4,85.46)">
    <path fill="none" d="M0.23,-3.08 L2.86,3.04 -3.09,0.04 " class="primitive"/>
  </g>
  <g transform="translate(50.44,46.5)">
    <path fill="none" d="M0.71,3.01 L-3.65,-2.03 2.93,-0.98 " class="primitive"/>
  </g>
  <g transform="translate(140.04,29.25)">
    <path fill="none" d="M-3.09,-0.11 L2.93,-2.98 0.16,3.09 " class="primitive"/>
  </g>
  <g transform="translate(82.55,90.68)">
    <path fill="none" d="M3.09,-0.17 L-2.65,3.23 -0.44,-3.06 " class="primitive"/>
  </g>
  <g transform="translate(53.95,93.33)">
    <path fill="none" d="M2.87,1.16 L-3.77,1.8 0.9,-2.96 " class="primitive"/>
  </g>
  <g transform="translate(131.35,132.32)">
    <path fill="none" d="M0.95,-2.94 L2.07,3.63 -3.01,-0.69 " class="primitive"/>
  </g>
  <g transform="translate(68.11,138.04)">
    <path fill="none" d="M2.93,-0.97 L-1.71,3.81 -1.23,-2.84 " class="primitive"/>
  </g>
  <g transform="translate(38.68,50.67)">
    <path fill="none" d="M-2.89,1.09 L1.55,-3.88 1.34,2.79 " class="primitive"/>
  </g>
  <g transform="translate(67.39,100.29)">
    <path fill="none" d="M-2.58,-1.7 L4.05,-1.02 -1.47,2.72 " class="primitive"/>
  </g>
  <g transform="translate(37.03,101.72)">
    <path fill="none" d="M-2.9,-1.07 L3.71,-1.91 -0.81,2.98 " class="primitive"/>
  </g>
  <g transform="translate(56.3,141.56)">
    <path fill="none" d="M-0.52,-3.05 L3.51,2.26 -2.99,0.79 " class="primitive"/>
  </g>
  <g transform="translate(142.85,31.16)">
    <path fill="none" d="M-2.93,0.99 L1.69,-3.82 1.24,2.83 " class="primitive"/>
  </g>
  <g transform="translate(85.9,96.64)">
    <path fill="none" d="M2.39,1.96 L-4.13,0.59 1.74,-2.55 " class="primitive"/>
  </g>
  <g transform="translate(54.85,96.72)">
    <path fill="none" d="M2.25,2.13 L-4.17,0.3 1.92,-2.42 " class="primitive"/>
  </g>
  <g transform="translate(99.32,22.53)">
    <path fill="none" d="M-1.74,2.56 L-0.96,-4.06 2.7,1.51 " class="primitive"/>
  </g>
  <g transform="translate(132.38,131.81)">
    <path fill="none" d="M1.3,-2.81 L1.61,3.85 -2.91,-1.05 " class="primitive"/>
  </g>
  <g transform="translate(70.75,139.82)">
    <path fill="none" d="M3.09,0.06 L-2.88,3.03 -0.21,-3.08 " class="primitive"/>
  </g>
  <g transform="translate(71.62,89.92)">
    <path fill="none" d="M0.85,-2.97 L2.18,3.56 -3.04,-0.59 " class="primitive"/>
  </g>
  <g transform="translate(44.87,87.96)">
    <path fill="none" d="M2.15,-2.22 L0.24,4.17 -2.4,-1.95 " class="primitive"/>
  </g>
  <g transform="translate(88.76,17.69)">
    <path fill="none" d="M-2.9,-1.06 L3.71,-1.93 -0.8,2.99 " class="primitive"/>
  </g>
  <g transform="translate(106.43,15.06)">
    <path fill="none" d="M1.64,2.62 L-4.11,-0.76 2.47,-1.86 " class="primitive"/>
  </g>
  <g transform="translate(94.91,22.51)">
    <path fill="none" d="M-2.71,1.49 L0.99,-4.06 1.72,2.57 " class="primitive"/>
  </g>
  <g transform="translate(128.34,135.03)">
    <path fill="none" d="M-0.37,-3.07 L3.4,2.43 -3.03,0.64 " class="primitive"/>
  </g>
  <g transform="translate(66.56,137.51)">
    <path fill="none" d="M2.72,-1.47 L-1.02,4.05 -1.7,-2.58 " class="primitive"/>
  </g>
  <g transform="translate(60.88,137.84)">
    <path fill="none" d="M1.38,-2.76 L1.49,3.9 -2.88,-1.14 " class="primitive"/>
  </g>
</g>
<g font-size="4" stroke="#000000" stroke-opacity="0.000" fill="#000000" id="img-4de128b3-3">
  <g transform="translate(111.25,87.42)">
    <g class="primitive">
      <text text-anchor="middle" dy="0.35em">-6.0</text>
    </g>
  </g>
  <g transform="translate(55.99,49.59)">
    <g class="primitive">
      <text text-anchor="middle" dy="0.35em">3.0</text>
    </g>
  </g>
  <g transform="translate(134.34,35.05)">
    <g class="primitive">
      <text text-anchor="middle" dy="0.35em">-2.0</text>
    </g>
  </g>
  <g transform="translate(81.76,91.65)">
    <g class="primitive">
      <text text-anchor="middle" dy="0.35em">-6.0</text>
    </g>
  </g>
  <g transform="translate(58.41,91.2)">
    <g class="primitive">
      <text text-anchor="middle" dy="0.35em">-5.0</text>
    </g>
  </g>
  <g transform="translate(126.36,123.56)">
    <g class="primitive">
      <text text-anchor="middle" dy="0.35em">-7.0</text>
    </g>
  </g>
  <g transform="translate(72.53,128.16)">
    <g class="primitive">
      <text text-anchor="middle" dy="0.35em">-2.0</text>
    </g>
  </g>
  <g transform="translate(34.98,59.91)">
    <g class="primitive">
      <text text-anchor="middle" dy="0.35em">10.0</text>
    </g>
  </g>
  <g transform="translate(60.75,101.97)">
    <g class="primitive">
      <text text-anchor="middle" dy="0.35em">-1.0</text>
    </g>
  </g>
  <g transform="translate(37.4,101.53)">
    <g class="primitive">
      <text text-anchor="middle" dy="0.35em">6.0</text>
    </g>
  </g>
  <g transform="translate(51.52,138.48)">
    <g class="primitive">
      <text text-anchor="middle" dy="0.35em">-9.0</text>
    </g>
  </g>
  <g transform="translate(138.97,39.98)">
    <g class="primitive">
      <text text-anchor="middle" dy="0.35em">6.0</text>
    </g>
  </g>
  <g transform="translate(86.38,96.57)">
    <g class="primitive">
      <text text-anchor="middle" dy="0.35em">3.0</text>
    </g>
  </g>
  <g transform="translate(63.04,96.13)">
    <g class="primitive">
      <text text-anchor="middle" dy="0.35em">-4.0</text>
    </g>
  </g>
  <g transform="translate(101.83,33.09)">
    <g class="primitive">
      <text text-anchor="middle" dy="0.35em">-6.0</text>
    </g>
  </g>
  <g transform="translate(130.98,128.48)">
    <g class="primitive">
      <text text-anchor="middle" dy="0.35em">3.0</text>
    </g>
  </g>
  <g transform="translate(77.15,133.09)">
    <g class="primitive">
      <text text-anchor="middle" dy="0.35em">8.0</text>
    </g>
  </g>
  <g transform="translate(67.96,83.96)">
    <g class="primitive">
      <text text-anchor="middle" dy="0.35em">9.0</text>
    </g>
  </g>
  <g transform="translate(44.62,83.52)">
    <g class="primitive">
      <text text-anchor="middle" dy="0.35em">-7.0</text>
    </g>
  </g>
  <g transform="translate(83.41,20.48)">
    <g class="primitive">
      <text text-anchor="middle" dy="0.35em">-3.0</text>
    </g>
  </g>
  <g transform="translate(109.53,15.63)">
    <g class="primitive">
      <text text-anchor="middle" dy="0.35em">5.0</text>
    </g>
  </g>
  <g transform="translate(92,34.49)">
    <g class="primitive">
      <text text-anchor="middle" dy="0.35em">8.0</text>
    </g>
  </g>
  <g transform="translate(121.15,129.89)">
    <g class="primitive">
      <text text-anchor="middle" dy="0.35em">6.0</text>
    </g>
  </g>
  <g transform="translate(67.32,134.49)">
    <g class="primitive">
      <text text-anchor="middle" dy="0.35em">-8.0</text>
    </g>
  </g>
  <g transform="translate(59.54,134.35)">
    <g class="primitive">
      <text text-anchor="middle" dy="0.35em">-7.0</text>
    </g>
  </g>
</g>
<g stroke-width="0" stroke="#000000" stroke-opacity="0.000" fill="#40E0D0" id="img-4de128b3-4">
  <g transform="translate(97.37,72.65)">
    <circle cx="0" cy="0" r="5.06" class="primitive"/>
  </g>
  <g transform="translate(13.33,113.93)">
    <circle cx="0" cy="0" r="5.06" class="primitive"/>
  </g>
  <g transform="translate(115.87,92.35)">
    <circle cx="0" cy="0" r="5.06" class="primitive"/>
  </g>
  <g transform="translate(42.19,41.9)">
    <circle cx="0" cy="0" r="5.06" class="primitive"/>
  </g>
  <g transform="translate(146.67,22.52)">
    <circle cx="0" cy="0" r="5.06" class="primitive"/>
  </g>
  <g transform="translate(76.55,97.98)">
    <circle cx="0" cy="0" r="5.06" class="primitive"/>
  </g>
  <g transform="translate(45.42,97.39)">
    <circle cx="0" cy="0" r="5.06" class="primitive"/>
  </g>
  <g transform="translate(97.14,13.33)">
    <circle cx="0" cy="0" r="5.06" class="primitive"/>
  </g>
  <g transform="translate(136.02,140.53)">
    <circle cx="0" cy="0" r="5.06" class="primitive"/>
  </g>
  <g transform="translate(64.25,146.67)">
    <circle cx="0" cy="0" r="5.06" class="primitive"/>
  </g>
</g>
<g font-size="4" stroke="#000000" stroke-opacity="0.000" fill="#000000" id="img-4de128b3-5">
  <g transform="translate(97.37,72.65)">
    <g class="primitive">
      <text text-anchor="middle" dy="0.35em">1</text>
    </g>
  </g>
  <g transform="translate(13.33,113.93)">
    <g class="primitive">
      <text text-anchor="middle" dy="0.35em">2</text>
    </g>
  </g>
  <g transform="translate(115.87,92.35)">
    <g class="primitive">
      <text text-anchor="middle" dy="0.35em">3</text>
    </g>
  </g>
  <g transform="translate(42.19,41.9)">
    <g class="primitive">
      <text text-anchor="middle" dy="0.35em">4</text>
    </g>
  </g>
  <g transform="translate(146.67,22.52)">
    <g class="primitive">
      <text text-anchor="middle" dy="0.35em">5</text>
    </g>
  </g>
  <g transform="translate(76.55,97.98)">
    <g class="primitive">
      <text text-anchor="middle" dy="0.35em">6</text>
    </g>
  </g>
  <g transform="translate(45.42,97.39)">
    <g class="primitive">
      <text text-anchor="middle" dy="0.35em">7</text>
    </g>
  </g>
  <g transform="translate(97.14,13.33)">
    <g class="primitive">
      <text text-anchor="middle" dy="0.35em">8</text>
    </g>
  </g>
  <g transform="translate(136.02,140.53)">
    <g class="primitive">
      <text text-anchor="middle" dy="0.35em">9</text>
    </g>
  </g>
  <g transform="translate(64.25,146.67)">
    <g class="primitive">
      <text text-anchor="middle" dy="0.35em">10</text>
    </g>
  </g>
</g>
</svg>
